<mxfile host="app.diagrams.net" modified="2024-07-03T08:43:17.989Z" agent="Mozilla/5.0 (Macintosh; Intel Mac OS X 10.15; rv:127.0) Gecko/20100101 Firefox/127.0" version="24.2.1" etag="2Bw6g2W-fA68FuXrLoCZ" type="github">
  <diagram name="Page-1" id="eM4U7CHQnU3D1LZNqViw">
    <mxGraphModel>
      <root>
        <mxCell id="0" />
        <mxCell id="1" parent="0" />
      </root>
    </mxGraphModel>
  </diagram>
</mxfile>
